<svg enable-background="new 0 0 62.46 63.804" height="64" viewBox="0 0 62.46 63.804" width="63" xmlns="http://www.w3.org/2000/svg"><path d="m1 1 60.029 35.232" fill="#fff"/><path d="m61.028 37.232c-.172 0-.346-.044-.505-.138l-60.029-35.231c-.476-.28-.636-.893-.356-1.369.279-.477.892-.636 1.368-.357l60.029 35.232c.476.28.636.892.356 1.369-.186.317-.52.494-.863.494z"/><path d="m1.431 15.391 60.029 35.232" fill="#fff"/><path d="m61.459 51.623c-.172 0-.346-.044-.505-.138l-60.029-35.232c-.476-.28-.636-.892-.356-1.369s.892-.635 1.369-.356l60.028 35.232c.476.28.636.892.356 1.369-.186.317-.52.494-.863.494z"/><path d="m1.431 27.573 60.029 35.231" fill="#fff"/><path d="m61.459 63.805c-.172 0-.346-.044-.505-.138l-60.029-35.232c-.476-.28-.636-.892-.356-1.369s.892-.636 1.369-.356l60.029 35.232c.476.28.636.892.356 1.369-.187.317-.521.494-.864.494z"/></svg>